<svg viewBox="0 0 1745.96 1248.37"><title>e-clothing</title><path d="M767,0,892,1248.37l57-190.07L856.65,84.18C822.71,52.27,814.57,42.09,767,0Z" style="fill:#bc8242"/><path d="M989.7,1157.4a51.57,51.57,0,0,1-51.58,51.6c-27.83,0-50.91-23.08-50.91-51.6s23.08-51.58,50.91-51.58a51.56,51.56,0,0,1,51.58,51.58Z" style="fill:#4c5b60"/><path d="M790.13,278.32l58.38,583.8H877l-22.4,57,15.61,162.91H1610.8c48.19,1.36-8.83-46.84-57-46.16l-673.37-26.47L970,862.12h663.88a26.58,26.58,0,0,0,26.47-24.44l37.33-398.48,17.66,2c36,4.75,42.76-48.87,6.78-53Z" style="fill:#4c5b60"/><path d="M767,0,131,101.15,0,1103.77l892,144.59ZM548.47,200.25c18.33-.67,33.26,14.94,33.94,36a39.73,39.73,0,0,1-13.58,31.9l5.42,137.8c3.4,93-64.48,169-150,172.42-85.53,2.72-158.84-68.56-162.91-161.56l-5.44-139.16c-8.82-6.79-14.25-17.65-14.94-29.87-.67-20.36,12.9-37.33,30.55-38s32.58,15.61,33.94,36c0,12.9-5.42,25.8-15.61,32.59l5.44,137.12c3.39,69.92,59,125.58,127.61,122.86,68.56-2,119.47-61.09,116.76-131.69l-5.44-137.8c-9.5-6.11-15.61-17.65-16.29-30.54-.68-20.37,12.88-38,30.54-38Z" style="fill:#c1955b"/><path d="M1559.89,1157.4c0,28.52-22.4,51.6-50.91,51.6a51.59,51.59,0,0,1,0-103.18c28.52,0,50.91,23.08,50.91,51.58Z" style="fill:#4c5b60"/></svg>