<svg xmlns="http://www.w3.org/2000/svg" viewBox="0 0 3223.83 2037.59"><title>ecommerce</title><path d="M430.93,1881.82H998.8a46.76,46.76,0,0,0,46.76-46.76V1422.41H384.17v412.65A46.76,46.76,0,0,0,430.93,1881.82Z" style="fill:#1b998b"/><path d="M404.83,1501.62H1024.9a34.79,34.79,0,0,0,34.79-34.79v-26.73a59.27,59.27,0,0,0-59.27-59.27H429.3A59.27,59.27,0,0,0,370,1440.09v26.73A34.79,34.79,0,0,0,404.83,1501.62Z" style="fill:#06d6a0"/><path d="M452.36,1380.83H742a46.76,46.76,0,0,0,46.76-46.76V1114.67H405.6v219.4A46.76,46.76,0,0,0,452.36,1380.83Z" style="fill:#1b998b"/><path d="M423.3,1160.56H771.08A25.89,25.89,0,0,0,797,1134.67h0a44.09,44.09,0,0,0-44.09-44.09H441.5a44.09,44.09,0,0,0-44.09,44.09h0A25.89,25.89,0,0,0,423.3,1160.56Z" style="fill:#06d6a0"/><rect x="443.87" y="1236.85" width="180.69" height="96.37" rx="23.55" ry="23.55" style="fill:#ffd166"/><path d="M3163.46,1900.91c0,75.51-694.65,136.68-1551.55,136.68S60.36,1976.42,60.36,1900.91a14,14,0,0,1,2.22-7.31H3161.25A14,14,0,0,1,3163.46,1900.91Z" style="fill:#9fc8d6"/><path d="M2125.91,1893.59H1098c-129.21,0-234-83.92-234-187.43V187.43C864,83.92,968.74,0,1098,0h1028c129.21,0,234,83.92,234,187.43V1706.16C2359.87,1809.68,2255.12,1893.59,2125.91,1893.59Z" style="fill:#073b4c"/><path d="M923.94,1469.88V215.39c0-76.35,81.6-138.24,182.25-138.24H2117.68c100.65,0,182.24,61.89,182.24,138.24V1469.88c0,76.35-81.6,138.24-182.25,138.24H1106.18C1005.53,1608.12,923.94,1546.23,923.94,1469.88Z" style="fill:#9fc8d6"/><path d="M1024.65,80.68,878.29,457.51H584.19L830,126.47a113.38,113.38,0,0,1,91-45.79Z" style="fill:#06d6a0"/><polygon points="1250.83 80.68 1171.7 457.51 878.29 457.51 1024.65 80.68 1250.83 80.68" style="fill:#faf4ff"/><polygon points="1486.35 80.68 1465.2 457.51 1171.7 457.51 1250.83 80.68 1486.35 80.68" style="fill:#06d6a0"/><polygon points="1758.69 457.51 1465.2 457.51 1486.35 80.68 1737.54 80.68 1758.69 457.51" style="fill:#faf4ff"/><polygon points="2052.1 457.51 1758.69 457.51 1737.54 80.68 1973.06 80.68 2052.1 457.51" style="fill:#06d6a0"/><polygon points="2345.6 457.51 2052.1 457.51 1973.06 80.68 2199.15 80.68 2345.6 457.51" style="fill:#faf4ff"/><path d="M2639.61,457.51h-294L2199.15,80.68h103.71a113.38,113.38,0,0,1,91,45.8Z" style="fill:#06d6a0"/><path d="M776.53,574.15h-91A101.33,101.33,0,0,1,584.22,472.83V456.7H877.85v16.13A101.33,101.33,0,0,1,776.53,574.15Z" style="fill:#1b998b"/><path d="M1070.16,574.15h-91A101.33,101.33,0,0,1,877.85,472.83V456.7h293.63v16.13A101.33,101.33,0,0,1,1070.16,574.15Z" style="fill:#e4e2e5"/><path d="M1363.79,574.15h-91a101.33,101.33,0,0,1-101.33-101.33V456.7h293.63v16.13A101.33,101.33,0,0,1,1363.79,574.15Z" style="fill:#1b998b"/><path d="M1657.42,574.15h-91a101.33,101.33,0,0,1-101.33-101.33V456.7h293.63v16.13A101.33,101.33,0,0,1,1657.42,574.15Z" style="fill:#e4e2e5"/><path d="M1951.05,574.15h-91a101.33,101.33,0,0,1-101.33-101.33V456.7h293.63v16.13A101.33,101.33,0,0,1,1951.05,574.15Z" style="fill:#1b998b"/><path d="M2244.68,574.15h-91a101.33,101.33,0,0,1-101.33-101.33V456.7H2346v16.13A101.33,101.33,0,0,1,2244.68,574.15Z" style="fill:#e4e2e5"/><path d="M2538.31,574.15h-91A101.33,101.33,0,0,1,2346,472.83V456.7h293.63v16.13A101.33,101.33,0,0,1,2538.31,574.15Z" style="fill:#1b998b"/><path d="M1360.8,1147.13v28.33a21.6,21.6,0,0,1-21.6,21.6H1018.34a21.6,21.6,0,0,1-21.6-21.6v-28.33Z" style="fill:#e4e2e5"/><path d="M1360.8,804.67v342.46H996.73V804.67a21.6,21.6,0,0,1,21.6-21.6H1339.2A21.6,21.6,0,0,1,1360.8,804.67Z" style="fill:#118ab2"/><path d="M1131.89,1179.86a7.76,7.76,0,1,1,7.76-7.76A7.77,7.77,0,0,1,1131.89,1179.86Z" style="fill:#ffd166"/><path d="M1178.76,1179.86a7.76,7.76,0,1,1,7.76-7.76A7.77,7.77,0,0,1,1178.76,1179.86Z" style="fill:#f78c6b"/><path d="M1225.64,1179.86a7.76,7.76,0,1,1,7.76-7.76A7.77,7.77,0,0,1,1225.64,1179.86Z" style="fill:#ffd166"/><path d="M2244.25,1147.13v28.33a21.6,21.6,0,0,1-21.6,21.6H1901.78a21.6,21.6,0,0,1-21.6-21.6v-28.33Z" style="fill:#e4e2e5"/><path d="M2244.25,804.67v342.46H1880.18V804.67a21.6,21.6,0,0,1,21.6-21.6h320.86A21.6,21.6,0,0,1,2244.25,804.67Z" style="fill:#118ab2"/><path d="M2015.33,1179.86a7.76,7.76,0,1,1,7.76-7.76A7.77,7.77,0,0,1,2015.33,1179.86Z" style="fill:#06d6a0"/><path d="M2062.21,1179.86a7.76,7.76,0,1,1,7.76-7.76A7.77,7.77,0,0,1,2062.21,1179.86Z" style="fill:#1b998b"/><path d="M2109.09,1179.86a7.76,7.76,0,1,1,7.76-7.76A7.77,7.77,0,0,1,2109.09,1179.86Z" style="fill:#06d6a0"/><path d="M1802.52,1147.13v28.33a21.6,21.6,0,0,1-21.6,21.6H1460.06a21.6,21.6,0,0,1-21.6-21.6v-28.33Z" style="fill:#e4e2e5"/><path d="M1802.52,804.67v342.46H1438.46V804.67a21.6,21.6,0,0,1,21.6-21.6h320.86A21.6,21.6,0,0,1,1802.52,804.67Z" style="fill:#118ab2"/><path d="M1573.61,1179.86a7.76,7.76,0,1,1,7.76-7.76A7.77,7.77,0,0,1,1573.61,1179.86Z" style="fill:#fc4b75"/><path d="M1620.49,1179.86a7.76,7.76,0,1,1,7.76-7.76A7.77,7.77,0,0,1,1620.49,1179.86Z" style="fill:#d94165"/><path d="M1667.37,1179.86a7.76,7.76,0,1,1,7.76-7.76A7.77,7.77,0,0,1,1667.37,1179.86Z" style="fill:#fc4b75"/><path d="M2125.5,1073.18H1975.75a35.09,35.09,0,0,1-34.85-38.86l11.41-104.38h196.63l11.41,104.38A35.09,35.09,0,0,1,2125.5,1073.18Z" style="fill:#1b998b"/><path d="M2126.49,932.86v2.29H1974.76v-2.29A75.85,75.85,0,0,1,2050.6,857h.05A75.85,75.85,0,0,1,2126.49,932.86Z" style="fill:none;stroke:#06d6a0;stroke-miterlimit:10;stroke-width:10.4176px"/><path d="M2148.94,929.94,2069,978.09a35.69,35.69,0,0,1-36.84,0l-79.89-48.15Z" style="fill:#06d6a0"/><path d="M1749.09,1008.18c0,3.1-.14,6.29-.24,9.54v.29a11.4,11.4,0,0,1-10.2,11,9.19,9.19,0,0,1-1.14,0H1483.13a8.48,8.48,0,0,1-8-11.16c4.05-12.3,14.78-31.09,42.86-37.33,9.77-2.19,20.69-4,31.95-6.39,7.68-1.57,15.54-3.43,23.32-5.77,1.53-.48,3.05-1,4.58-1.48a140.41,140.41,0,0,0,14.83-5.82c1.43-.62,2.86-1.34,4.29-2a105.32,105.32,0,0,0,12.21-7.25c1.29-.91,2.58-1.86,3.81-2.81a85.57,85.57,0,0,0,9.77-8.87c1.1-1.15,2.19-2.34,3.19-3.58a86.51,86.51,0,0,0,9.15-13.11c.81-1.43,1.57-2.86,2.34-4.34a104.49,104.49,0,0,0,5-11.87,9.16,9.16,0,0,1,8.73-6.1h83.73a7,7,0,0,1,6.91,5.58C1744.37,919.59,1750.14,954.3,1749.09,1008.18Z" style="fill:#fc4b75"/><path d="M1749.09,1008.18c0,3.1-.14,6.29-.24,9.54v.29a11.4,11.4,0,0,1-10.2,11,9.19,9.19,0,0,1-1.14,0H1483.13a8.43,8.43,0,0,1-8.07-11c4-12.3,14.7-31.25,42.93-37.53,9.77-2.19,20.69-4,31.95-6.39,5.42,8.27,10.58,12.89,11.73,27.49a7.13,7.13,0,0,0,7.13,6.51Z" style="fill:#faf4ff"/><path d="M1590.7,990.3a2.39,2.39,0,0,1-1.62.62,2.44,2.44,0,0,1-1.76-.81,90.14,90.14,0,0,1-14.07-21.69c1.53-.48,3.05-1,4.58-1.48a86.75,86.75,0,0,0,13,20A2.35,2.35,0,0,1,1590.7,990.3Z" style="fill:#faf4ff"/><path d="M1607.34,976.14a2.56,2.56,0,0,1-1.67.67,2.42,2.42,0,0,1-1.72-.71,82.87,82.87,0,0,1-11.3-15c1.43-.62,2.86-1.34,4.29-2a78,78,0,0,0,10.39,13.68A2.4,2.4,0,0,1,1607.34,976.14Z" style="fill:#faf4ff"/><path d="M1625.41,963.5a2.37,2.37,0,0,1-3.29.71,56.66,56.66,0,0,1-13-12.4c1.29-.91,2.58-1.86,3.81-2.81a53.72,53.72,0,0,0,11.73,11.21A2.39,2.39,0,0,1,1625.41,963.5Z" style="fill:#faf4ff"/><path d="M1638.81,950.25a2.49,2.49,0,0,1-2,1,2.28,2.28,0,0,1-1.34-.38,94.78,94.78,0,0,1-12.73-10.77c1.1-1.15,2.19-2.34,3.19-3.58a88.81,88.81,0,0,0,12.16,10.35A2.45,2.45,0,0,1,1638.81,950.25Z" style="fill:#faf4ff"/><path d="M1653.63,933.56a2.31,2.31,0,0,1-2.15,1.34,2.49,2.49,0,0,1-1-.19c-5.48-2.67-11.21-7.39-15.4-11.25.81-1.43,1.57-2.86,2.34-4.34,4,3.77,9.77,8.68,15.12,11.25A2.38,2.38,0,0,1,1653.63,933.56Z" style="fill:#faf4ff"/><circle cx="1704.92" cy="966.94" r="23.49" style="fill:#faf4ff"/><rect x="996.73" y="1231.29" width="364.07" height="149.87" rx="33.83" ry="33.83" style="fill:#faf4ff"/><rect x="1438.46" y="1231.29" width="364.07" height="149.87" rx="33.83" ry="33.83" style="fill:#faf4ff"/><rect x="1880.18" y="1231.29" width="364.07" height="149.87" rx="33.83" ry="33.83" style="fill:#faf4ff"/><line x1="1066.18" y1="1266.66" x2="1291.35" y2="1266.66" style="fill:none;stroke:#9fc8d6;stroke-linecap:round;stroke-miterlimit:10;stroke-width:15.7194px"/><line x1="1066.18" y1="1320.1" x2="1291.35" y2="1320.1" style="fill:none;stroke:#9fc8d6;stroke-linecap:round;stroke-miterlimit:10;stroke-width:15.7194px"/><line x1="1507.91" y1="1266.66" x2="1733.07" y2="1266.66" style="fill:none;stroke:#9fc8d6;stroke-linecap:round;stroke-miterlimit:10;stroke-width:15.7194px"/><line x1="1507.91" y1="1320.1" x2="1733.07" y2="1320.1" style="fill:none;stroke:#9fc8d6;stroke-linecap:round;stroke-miterlimit:10;stroke-width:15.7194px"/><line x1="1949.63" y1="1266.66" x2="2174.8" y2="1266.66" style="fill:none;stroke:#9fc8d6;stroke-linecap:round;stroke-miterlimit:10;stroke-width:15.7194px"/><line x1="1949.63" y1="1320.1" x2="2174.8" y2="1320.1" style="fill:none;stroke:#9fc8d6;stroke-linecap:round;stroke-miterlimit:10;stroke-width:15.7194px"/><path d="M1231.63,916.91a31.19,31.19,0,0,1-.4-3.42L1267,898.8c-1.53-22-14.16-50.77-23-67.62a16.14,16.14,0,0,0-20.43-7.4l-6.56,2.69-.13.06.11.47a27.06,27.06,0,0,1-5.53,15.6q-.86,1.18-1.85,2.31t-2.08,2.21l-.21.2c-15.59,15.11-41.47,15.11-57.06,0l-.21-.2c-5.85-5.74-9.33-12.66-9.46-20.12-.13.62-.26,1.27-.4,1.89-.06-.63-.13-1.26-.14-1.89l.11-.47-.13-.06-6.56-2.69a16.14,16.14,0,0,0-20.43,7.4c-8.89,16.85-21.52,45.64-23.06,67.62l35.78,14.68.53.22a25.7,25.7,0,0,1-.38,3.21c-11.56,47.76-16.06,55.35-38.42,185.42l13.95,1.41a769.8,769.8,0,0,0,154.91,0l13.71-1.39C1247.69,972.26,1243.18,964.67,1231.63,916.91Z" style="fill:#ffd166"/><polyline points="3212.74 1893.59 3161.25 1893.59 62.58 1893.59 11.08 1893.59" style="fill:none;stroke:#073b4c;stroke-linecap:round;stroke-miterlimit:10;stroke-width:22.165px"/><path d="M704.25,919.33a16.74,16.74,0,0,0-4.32-22.45l-11.6-8.43,12.6-17.32a52.27,52.27,0,0,0-84.55-61.48L603.79,827l-10.21-7.43a16.74,16.74,0,0,0-22.69,2.81L461.38,953.47a16.73,16.73,0,0,0,3,24.26l124.89,90.81a16.74,16.74,0,0,0,24-4.62ZM621.93,813.67a45.41,45.41,0,0,1,73.46,53.42l-12.6,17.32L609.33,831Z" style="fill:#fc4b75"/><path d="M2848.28,1881.82H2384.14a46.76,46.76,0,0,1-46.76-46.76V1494.46H2895v340.59A46.76,46.76,0,0,1,2848.28,1881.82Z" style="fill:#118ab2"/><path d="M2897.72,1561.25h-563a9.24,9.24,0,0,1-9.24-9.24v-58.9a33.71,33.71,0,0,1,33.71-33.71h514.08a33.71,33.71,0,0,1,33.71,33.71V1552A9.24,9.24,0,0,1,2897.72,1561.25Z" style="fill:#073b4c"/><rect x="2576.37" y="1672.28" width="262.97" height="140.25" rx="23.55" ry="23.55" style="fill:#06d6a0"/><path d="M1001.81,1636.27c-74.24,31.21-160-3.8-191.25-78s3.8-160,78-191.25,160,3.8,191.25,78S1076,1605.05,1001.81,1636.27Z" style="fill:#f78c6b"/><circle cx="945.2" cy="1501.62" r="126.05" transform="translate(-508.08 483.66) rotate(-22.8)" style="fill:#ffd166"/><path d="M1005.09,1516.73c-9-21.45-26.39-28.49-54.48-28.06l-22-52.22a65,65,0,0,1,27.84-3.48l-1.3-18.09c-7.73-.91-19.3.06-33.31,5.44l-8.29-19.73-18.44,7.75,9,21.44c-18.29,13.58-24.73,34-16.75,53,8.08,19.22,25.74,26.2,50,26.12l24.35,57.93a75,75,0,0,1-35.43,3.51l1.94,18.34c9.79,1.88,26.21-.26,40.27-5.73l8.29,19.72,18.44-7.75-9-21.32C1008.46,1558.09,1013.19,1536,1005.09,1516.73Zm-99-44.46c-3.06-7.27-2.58-17.18,5.23-25.41L928.61,1488C917,1486.31,910.12,1481.84,906.09,1472.27Zm73.11,84.41-20-47.63c14.25,1.48,22.15,6.71,26.72,17.58S988.06,1548.29,979.2,1556.68Z" style="fill:#f78c6b"/><path d="M713.81,1550.43c-74.24-31.21-109.25-117-78-191.25s117-109.25,191.25-78,109.25,117,78,191.25S788.05,1581.65,713.81,1550.43Z" style="fill:#f78c6b"/><circle cx="770.41" cy="1415.78" r="126.05" transform="translate(-833.3 1577.29) rotate(-67.2)" style="fill:#ffd166"/><path d="M801.52,1469.14c9-21.45,1.89-38.79-18.06-58.56l22-52.22a65,65,0,0,1,22,17.46l12-13.58c-4.76-6.16-13.55-13.75-27.19-20l8.29-19.73L802,1314.76l-9,21.44c-22.5-3.57-41.57,6.09-49.55,25.08-8.08,19.22-.71,36.72,16.31,54l-24.36,57.93a75,75,0,0,1-27.3-22.86l-11.75,14.22c5.5,8.31,18.52,18.54,32.27,24.77l-8.29,19.72,18.44,7.75,9-21.32C774.32,1500.49,793.41,1488.42,801.52,1469.14ZM764,1367.31c3.06-7.27,10.47-13.86,21.82-14l-17.29,41.12C761.63,1384.93,760,1376.88,764,1367.31Zm-9.17,111.29,20-47.63c8.91,11.22,10.7,20.52,6.13,31.39S767.05,1479.06,754.86,1478.6Z" style="fill:#f78c6b"/><path d="M1175.27,1267.26a11.35,11.35,0,0,0-14.38,7l-48.53,141.48H655.69a40.62,40.62,0,0,0-40.1,47l29.32,183.05a40.44,40.44,0,0,0,40.1,34.19H993l8.64,123.88a14.63,14.63,0,0,1-3.94,11.12,14.43,14.43,0,0,1-8.49,4.23,34.76,34.76,0,0,0-42.66.48H753.39a34.71,34.71,0,0,0-43.24,0H686.46a11.33,11.33,0,1,0,0,22.65H696.9a35.41,35.41,0,1,0,69.74,0H933.33a35.36,35.36,0,1,0,69.08-3.43,37.15,37.15,0,0,0,21.86-36.61l-8.53-122.31h.92a40.62,40.62,0,0,0,38.41-27.43l76-221.56c.07-.19.13-.38.19-.56l51.06-148.85A11.33,11.33,0,0,0,1175.27,1267.26Zm-84.73,212.13h-80.09l12.8-41h81.34Zm-40.15,117.07H973.87l29.5-94.41h79.4Zm-187.46,60.94v-38.29h80.12l-12,38.29ZM644.81,1502h73.42l14,94.41H659.93Zm96.32,0h99.15v94.41H755.14Zm99.15-22.65H737.77l-6.08-41H840.28Zm22.65-41H999.51l-12.8,41H862.93Zm-22.65,180.67v38.29H764.19l-5.68-38.29Zm22.65-22.65V1502H979.64l-29.5,94.41ZM642,1444.74a18,18,0,0,1,13.67-6.3h53.1l6.08,41H641.18L638,1459.23A18,18,0,0,1,642,1444.74Zm25.25,197.54-3.71-23.17h72l5.68,38.29H685A17.89,17.89,0,0,1,667.27,1642.29Zm349.39,15.12H954.82l12-38.29h75.83l-9,26.17A18,18,0,0,1,1016.66,1657.41Z" style="fill:#d94165"/><path d="M553.6,706.82l-43,21.82a53.44,53.44,0,0,1-71.82-23.5L410,648.37a17.28,17.28,0,0,1,7.6-23.22l102-51.69a39.27,39.27,0,0,1,55.53,24.29l10.34,36.36A62.38,62.38,0,0,1,553.6,706.82Z" style="fill:#fc4b75"/><path d="M411.89,563.12h38.73a2.63,2.63,0,0,1,2.63,2.63V623a0,0,0,0,1,0,0h-44a0,0,0,0,1,0,0V565.75A2.63,2.63,0,0,1,411.89,563.12Z" transform="translate(-221.55 259.07) rotate(-26.88)" style="fill:#fc4b75"/><path d="M445.66,756.36l-49.85,25.27a5,5,0,0,1-6.75-2.21l-61.34-121a5,5,0,0,1,2.21-6.75l49.85-25.27a2.57,2.57,0,0,1,3.45,1.13L446.8,752.9A2.57,2.57,0,0,1,445.66,756.36Z" style="fill:#fc4b75"/><path d="M2551.21,1332.44c4.47-28-8.25-46.8-36.26-64.5a6.43,6.43,0,0,1-3-6.43l9.55-59.78a6.37,6.37,0,0,1,8.12-5.12,83.22,83.22,0,0,1,19.68,9.1,6.35,6.35,0,0,0,9-2.45l4.75-9a6.41,6.41,0,0,0-2.25-8.39c-6.9-4.42-16.52-8.78-29-11.76a6.37,6.37,0,0,1-4.79-7.19l2.32-14.55a6.38,6.38,0,0,0-5.3-7.31l-12.46-2a6.38,6.38,0,0,0-7.31,5.3l-2.88,18.06a6.29,6.29,0,0,1-5.25,5.28c-26.44,3.76-45.13,20.88-49,45.32-4,24.92,8.9,43.67,32.82,59.38a6.44,6.44,0,0,1,2.88,6.39l-10.8,67.64a6.38,6.38,0,0,1-8.1,5.14,96.92,96.92,0,0,1-27.6-13.51,6.35,6.35,0,0,0-9.37,2.46l-4.57,9.43a6.43,6.43,0,0,0,2.07,8c9,6.5,22.87,12.65,37.2,16.1a6.38,6.38,0,0,1,4.81,7.21l-2.32,14.52a6.38,6.38,0,0,0,5.3,7.31l12.46,2a6.38,6.38,0,0,0,7.31-5.3l2.83-17.73a6.32,6.32,0,0,1,5.51-5.32C2529,1377.32,2547.23,1357.41,2551.21,1332.44Zm-76.86-114.22a28.77,28.77,0,0,1,10.47-17.89,6.4,6.4,0,0,1,10.27,6l-4.95,31c-.9,5.65-8.38,7.46-11.53,2.67C2474.39,1233.57,2473,1226.64,2474.35,1218.22Zm23.9,129.3,6.76-42.31a6.41,6.41,0,0,1,11.27-3c7.09,8.35,9.37,17.16,7.62,28.08-1.7,10.66-7.36,18.92-16.16,23.83A6.41,6.41,0,0,1,2498.25,1347.52Z" style="fill:#fc4b75"/><path d="M2723.93,852.66a33.85,33.85,0,0,0-27.75-5.94l-6.4,1.44-3.68-16.35A59.31,59.31,0,0,0,2615.3,787l-54.66,12.29a59.31,59.31,0,0,0-44.81,70.8l3.68,16.35-6.4,1.44A33.9,33.9,0,0,0,2489,933.46l47.31,119.21a24.87,24.87,0,0,0,28.71,15.16l161.2-36.24a24.87,24.87,0,0,0,19.46-26l-8.28-128A33.86,33.86,0,0,0,2723.93,852.66Zm-24.75,7.41a20.22,20.22,0,0,1,24.61,18.43l.42,6.47-33.05,7.43-2.45-30,4.08-.92Zm-80.55,48.63-6.53-29.05,67.62-15.2,2.45,30Zm64.29-5.11,3.09,37.73-57.16,12.85-8.22-36.57Zm-73.19,7.11-65.46,14.72-10.61-28.14,69.54-15.63Zm2,8.9,8.22,36.57-59.08,13.28L2547.52,934Zm-59.84,51.87-30.34,6.82-14-35.27,31-7ZM2525,986.88l30.18-6.79,13.36,35.42-29.54,6.64Zm39.17-8.81,57.83-13,8.22,36.57-52.7,11.85Zm68.05,32.47,6,26.83-47.68,10.72-9.8-26Zm8.9-2,49.53-11.14,2.27,27.68-45.76,10.29Zm-2-8.9-8.22-36.57,55.91-12.57,3.09,37.73Zm56.67-51.16,32.1-7.22,2.45,37.87-31.46,7.07Zm-.75-9.18-3.09-37.73,32.9-7.4,2.45,37.87Zm-165.81-72.21a45.62,45.62,0,0,1,34.46-54.45l54.66-12.29a45.62,45.62,0,0,1,54.45,34.46l3.68,16.35-143.57,32.28Zm-26.51,44.42a20.2,20.2,0,0,1,13.44-10.28l6.4-1.44,2.16-.49,10.61,28.14-31.14,7-2.39-6A20.21,20.21,0,0,1,2502.68,911.51Zm46.39,136.12-6.7-16.89,29.38-6.61,9.8,26-19.48,4.38A11.26,11.26,0,0,1,2549.06,1047.63Zm174.19-29.38-21.4,4.81-2.27-27.68,31.3-7,1.17,18.14A11.26,11.26,0,0,1,2723.26,1018.25Z" style="fill:#fc4b75"/><path d="M316.41,1692.51a54,54,0,0,0-93.93-9.32l-.16-.09-.09.16a54,54,0,0,0-54.94,92.62l-.09.16,59,35a39.47,39.47,0,0,0,54.09-13.81l35-59-.16-.09A53.88,53.88,0,0,0,316.41,1692.51Z" style="fill:#faf4ff"/><circle cx="2500.25" cy="166.71" r="24.96" style="fill:#faf4ff"/><circle cx="2707.85" cy="1247.75" r="55.17" style="fill:#faf4ff"/><path d="M2434.71,1882.51H2216.22a23.68,23.68,0,0,1-23.63-25.27l16.21-241.18a23.68,23.68,0,0,1,23.63-22.09h186.07a23.68,23.68,0,0,1,23.63,22.09l16.21,241.18A23.68,23.68,0,0,1,2434.71,1882.51Z" style="fill:#fc4b75"/><path d="M2398.2,1638.56v-74.9a74,74,0,1,0-147.9,0v74.91a13.13,13.13,0,1,0,9.7,0v-74.91a64.25,64.25,0,1,1,128.51,0v74.91a13.13,13.13,0,1,0,9.7,0Z" style="fill:#d94165"/></svg>